# xmcd
#
# Track frame offsets:
#	150
#	19952
#	37042
#	52671
#	73914
#	87023
#	101489
#	116677
#	135600
#	150894
#
# Disc length: 2279 seconds
#
# Revision: 1
# Processed by: cddbd v1.5.2PL0 Copyright (c) Steve Scherf et al.
# Submitted via: audiograbber 1.83.01
#
DISCID=7808e50a
DTITLE=Bruce Larson - You Are The One
DYEAR=1900
DGENRE=Country
TTITLE0=Spilled Perfume
TTITLE1=I Hear You've Been Looking For Me
TTITLE2=You Are The One
TTITLE3=Man Of Constant Sorrow
TTITLE4=I Think I Got That Thing
TTITLE5=Two Friends One Night
TTITLE6=Would I Lie To You
TTITLE7=The Band Played On
TTITLE8=Ride The Tide
TTITLE9=Single Thing In Mind
EXTD=Plumber From Blair, WI
EXTT0=
EXTT1=
EXTT2=
EXTT3=
EXTT4=
EXTT5=
EXTT6=
EXTT7=
EXTT8=
EXTT9=
PLAYORDER=
